<svg width="90" height="83" xmlns="http://www.w3.org/2000/svg"><path d="M88.7 37.3s-.1 0 0 0c-.8 0-2-.6-3.1-1.3 0 0 .1 0 .1-.1.3-.2.6-.5.9-.7.3-.2.5-.4.7-.6l.5-.5c.3-.3.4-.5.4-.5.6-.6.6-1.6 0-2.2-.6-.6-1.7-.6-2.3 0l-.1.1-.3.3-.4.4c-.1.2-.3.3-.5.4-.2.2-.4.3-.6.5-.2.1-.5.3-.8.4-.3.1-.6.3-.9.4l-.9.3c-.3.1-.6.1-1 .1h-1c-.3 0-.6 0-.9-.1-.3 0-.6-.1-.8-.1-.5-.1-.9-.2-1.2-.3h-.1c.1-.5.2-1 .4-1.4.7-2.2 1.7-3.7 2.6-4.7.5-.5.8-.9 1.1-1.1.3-.2.4-.4.4-.4l.1-.1c.6-.6.6-1.7 0-2.3-.6-.6-1.7-.6-2.3 0l-.5.5c-.3.3-.7.8-1.2 1.4-.5.6-1.1 1.4-1.7 2.4-.6 1-1.1 2.1-1.6 3.4-.5 1.3-.8 2.7-1.2 4.1-.4 1.4-.8 2.8-1.3 4.2-.1.3-.3.7-.4 1l-.2.5-.3.5c-.2.3-.3.5-.5.8l-.6.9c-.9 1.2-2 2.3-3.1 3.4-1.2 1.1-2.4 2.2-3.7 3.2l-.2.2-.6-.6c-.7-.8-1.5-1.8-2.2-2.9-.4-.6-.7-1.1-1-1.7-.1-.3-.3-.5-.4-.8-.1-.3-.2-.5-.3-.7-.1-.2-.1-.4-.2-.6-.1-.2-.1-.3-.1-.5-.1-.3-.1-.4-.1-.4l-.1-.2c-.2-.7-.8-1.3-1.6-1.3-.9 0-1.6.7-1.6 1.6V43.5c0 .3.1.5.1.9 0 .3.1.6.2 1 0 .1.1.2.1.4-1.7-.5-2.6-1.4-2.6-1.4-.5-.5-1.3-.5-1.8 0s-.5 1.3 0 1.8c.1.1 2 2 5.4 2.5v.1c.6 1.5 1.3 2.9 1.9 3.9.2.4.4.7.6.9-1 .7-2 1.4-2.9 2.1-1.2.8-2.3 1.5-3.4 2.2-2.1 1.3-3.9 2.4-5.1 3.1-.3.1-.5.3-.7.4-.2-.3-.4-.5-.6-.8-1.1-1.3-2.3-2.6-3.6-3.7l.3-1.1c.2-.8.5-1.6.7-2.4l.6-2.4c.2-.8.3-1.7.4-2.5.1-.9.2-1.7.2-2.6v-.2c.2-.1.4-.2.5-.3 0 0 1.8-1.5 4.5-3.7 1.4-1.1 2.9-2.4 4.6-3.8.8-.7 1.7-1.4 2.6-2.1l.7-.6c.2-.2.4-.4.7-.6.5-.4.9-.8 1.4-1.3 1.7-1.7 3.3-3.5 4.8-5.3.1-.1.2-.2.2-.3 1.7-.2 6.7-1.1 9-2.9.6-.4.7-1.3.2-1.8-.4-.6-1.3-.7-1.8-.2-1.1.8-3.3 1.5-5.2 1.9.1-.2.2-.4.4-.5.3-.4.5-.8.7-1.2.5-.8.9-1.5 1.2-2.2.3-.7.6-1.3.8-1.8.4-1 .6-1.6.6-1.6.3-.8 0-1.7-.8-2.1-.8-.4-1.8 0-2.2.8v.1s-.2.5-.6 1.4c-.2.4-.5.9-.8 1.5-.3.6-.7 1.2-1.2 1.9-.2.3-.5.7-.7 1.1-.3.4-.5.7-.8 1.1-.3.4-.6.8-.9 1.1-.3.4-.7.8-1 1.2-1.3 1.5-2.8 2.9-4.3 4.3v-.1l-.3-.6c-.1-.2-.2-.5-.3-.8-.1-.3-.3-.6-.4-1-.1-.4-.2-.7-.3-1.1l-.3-1.2c-.1-.4-.2-.8-.2-1.3-.1-.9-.2-1.7-.2-2.5s0-1.6.1-2.2c.1-.7.2-1.2.2-1.5 0-.2.1-.3.1-.4V17c.2-.8-.2-1.7-1-2-.8-.3-1.8.1-2.1 1 0 0 0 .1-.1.2 0 .1-.1.3-.2.5-.1.4-.3 1.1-.4 1.8-.1.3-.1.7-.2 1.1-.9-.5-2.1-1.3-3.2-2.3-.5-.5-1.4-.4-1.8.1-.5.5-.4 1.4.1 1.8.9.8 2.8 2.4 4.6 3V24c0 .5.1 1 .1 1.5s.1 1 .2 1.5.2.9.3 1.4l.3 1.2c.1.4.2.7.3 1 .1.3.2.6.3.8.2.4.3.7.3.7 0 .1.1.1.1.2.1.1.1.2.2.3-.6.5-1.3.9-1.9 1.3-1.8 1.3-3.5 2.4-4.9 3.4-1 .7-1.9 1.3-2.6 1.9-.1-.5-.3-.9-.4-1.4l-.1-.3-.1-.2v-.1l-.1-.1-.3-.5-.1-.3c0-.1-.1-.2-.2-.3l-.4-.7c-.3-.5-.6-.8-.9-1.2l-.4-.5-.4-.5-1.8-1.8c-.3-.3-.7-.6-1-.9.2-.4.4-.8.5-1.2.1-.3.2-.7.3-1 .1-.4.2-.8.2-1.2 0-.4.1-.8.1-1.3v-1.3c-.1-.9-.3-1.8-.5-2.7-.2-.9-.5-1.8-.8-2.7-.3-.9-.6-1.7-.8-2.5-.1-.4-.2-.8-.3-1.3v-.4c2.2-.2 5.9-.9 8.5-3.8.6-.7.6-1.7-.1-2.3-.7-.6-1.7-.5-2.3.1-1.7 1.9-4.3 2.5-6 2.7.1-.7.2-1.4.4-2.1.2-.7.3-1.4.5-2.1.3-1.3.7-2.3 1-3.1.1-.4.2-.6.3-.8.1-.2.1-.3.1-.3.3-.8-.1-1.8-.9-2.1-.8-.3-1.8.1-2.1.9 0 0 0 .1-.1.3-.1.2-.2.5-.3.9-.3.8-.7 1.9-1.1 3.3-.2.7-.4 1.4-.6 2.3-.2.8-.3 1.7-.5 2.6-.1.9-.2 1.9-.1 2.9 0 .3 0 .5.1.8 0 .3.1.5.1.8.1.4.2.9.3 1.4.3 1 .5 1.9.8 2.7.3.9.5 1.7.7 2.4.2.8.3 1.5.3 2.2v1c0 .3-.1.6-.1.9-.1.3-.1.5-.2.8-.1.2-.2.5-.2.7 0 .1 0 .1-.1.2-.6-.4-1.2-.8-1.9-1.3-.7-.4-1.4-.9-2-1.3l-1.5-.9c-.1-.2-.1-.4-.2-.6l-.6-1c-.3-.8-.6-1.7-.9-2.5-.6-1.7-1.3-3.3-2.2-4.9-.4-.8-1.4-1.1-2.2-.7-.8.4-1.1 1.4-.7 2.2.8 1.4 1.4 2.9 2 4.5.3.8.6 1.6.8 2.4l.2.6c-2.7.3-8 .5-12.1-1.1-.8-.3-1.8.1-2.1.9-.3.8.1 1.8.9 2.1 3 1.2 6.5 1.6 9.4 1.6 2.5 0 4.5-.2 5.6-.4.5.3.9.7 1.4 1 .6.4 1.2.9 1.8 1.4.6.5 1.2.9 1.8 1.4.6.5 1.1 1 1.7 1.5.6.5 1.1 1 1.6 1.5s1 1.1 1.4 1.6l.3.4.3.4c.2.3.4.6.5.8.1.1.1.2.2.3 0 .1.1.1.1.2l.1.3.2.5.1.1v.1c0-.1-.1-.2-.1-.2l.1.2c.2.6.3 1.3.4 2 0 .3.1.7.1 1v1c0 .7-.1 1.3-.1 2-.1.7-.2 1.4-.4 2-.1.7-.3 1.4-.5 2-.2.7-.4 1.4-.7 2-.1.4-.3.8-.5 1.2-2.6-1.6-5.3-2.9-7.9-4v-.3c0-.3-.1-.8-.2-1.2-.1-.5-.2-1-.3-1.6-.1-.6-.3-1.2-.5-1.9s-.4-1.4-.7-2.2c-.1-.4-.3-.8-.6-1.2-.1-.2-.3-.5-.5-.7-.1-.1-.2-.3-.4-.4l-.2-.2-.2-.2h-.1c-.2-.1-.3-.2-.6-.4-.2-.1-.3-.1-.5-.2l-.2-.1h-.2l-.7-.2-.6.2c-.8-.2-1.6-.3-2.3-.4l-2.1-.3c-.7-.1-1.3-.2-1.9-.4-.6-.1-1.1-.2-1.6-.4-.3-.1-.5-.1-.7-.2-.2-.1-.4-.1-.6-.2-.2-.1-.3-.1-.5-.2-.1-.1-.2-.1-.3-.2-.1-.1-.2-.1-.2-.2-.1 0-.1-.1-.1-.1l-.1-.1-.4-.3c-.6-.4-1.5-.4-2 .1-.7.6-.7 1.6-.1 2.3l.3.3c.2.2.4.5.8.7.2.1.4.3.6.4.2.1.4.3.7.4.1 0 .1.1.2.1-1.8.5-4.8.5-9.3-1.2-.8-.3-1.8.1-2.1 1-.3.8.1 1.8 1 2.1 3.2 1.2 5.9 1.6 8 1.6 3.4 0 5.5-1.1 6.6-2.1l1.2.3c.7.1 1.4.3 2.2.4.7.1 1.4.3 2.1.5l.5.1.1.2h.1s.1 0 .2.1c0 .1.1.1.1.2.1.2.2.4.3.7.2.5.4 1.1.5 1.7.1.6.3 1.1.4 1.7 0 .1 0 .2.1.3-.1 0-.2-.1-.3-.1-1.7-.4-3.2-.5-4.6-.4-1.4 0-2.6.2-3.7.4s-2 .4-2.8.6c-.8.2-1.3.4-1.7.5-.4.1-.6.2-.6.2-.8.3-1.3 1.2-1 2 .3.9 1.2 1.3 2 1.1h.1s.2-.1.5-.2.9-.2 1.6-.4c.7-.1 1.5-.3 2.5-.4 1-.1 2-.2 3.2-.1 1.1.1 2.4.2 3.5.6.3.1.6.2.8.3l.4.2.2.1.1.1.1.1c.3.2.7.4 1 .6.3.2.7.4 1 .6.8.4 1.6.9 2.4 1.4 0 .1-.2.1-.4.2-.3.1-.7.2-1 .3-1.4.4-2.8.6-3.9.7-.5.1-1 .1-1.3.1h-.6c-.8.1-1.5.7-1.5 1.6 0 .9.7 1.6 1.6 1.7h2.1c.6 0 1.3 0 2-.1-.6 1.6-1.7 3.3-2.2 4.1-.4.6-.2 1.4.4 1.8.2.1.5.2.7.2.4 0 .8-.2 1.1-.6.2-.4 2.2-3.4 2.8-5.9.3 0 .6-.1.8-.2l1.2-.3c.4-.1.8-.3 1.2-.4.4-.1.7-.3 1.1-.5.1 0 .1-.1.2-.1.5.4 1 .7 1.5 1.1.4.3.8.7 1.2 1 .3.5.7.9 1.2 1.1 1.4 1.4 2.6 2.9 3.6 4.5.8 1.2 1.4 2.4 1.9 3.5.5 1.2.9 2.3 1.1 3.4.3 1.1.4 2.1.6 3 .1.4.1.9.1 1.2 0 .4 0 .7.1 1.1.1.6 0 1.2 0 1.5v1.2c.3 2.3 2.5 4 4.8 3.7 2.3-.3 4-2.5 3.7-4.8 0 0 0-.2-.1-.7-.1-.4-.1-1.1-.3-1.9-.1-.4-.2-.9-.3-1.4-.1-.5-.2-1-.4-1.6-.3-1.1-.7-2.4-1.2-3.7-.1-.4-.3-.7-.5-1.1.3-.2.6-.5 1.1-.9 1.2-1 2.8-2.3 4.8-4 1-.8 2-1.7 3.1-2.7 1.1-1 2.3-2 3.5-3.1 2.4-2.2 4.9-4.5 7.3-7.1.2-.3.5-.5.7-.8.2.1.4.3.7.4.3.2.6.3.9.4.6.3 1.3.5 2.1.7.4.1.7.2 1.1.2.4 0 .8.1 1.1 0h.5c.2 0 .4-.1.5-.1.3-.1.7-.1.9-.2.3-.1.5-.2.8-.3.2-.1.4-.2.5-.3.3-.2.5-.3.5-.3.7-.4 1-1.3.7-2-.3-.8-1.3-1.2-2.1-.9l-.3.1s-.1 0-.3.1c-.1 0-.2.1-.3.1-.1 0-.3.1-.4.1-.2.1-.3.1-.5.1H76c-.2 0-.4 0-.6-.1-.2 0-.4-.1-.7-.2-.5-.2-.9-.3-1.3-.6-.2-.1-.4-.2-.6-.4-.1 0-.1-.1-.2-.1.1-.1.2-.3.3-.4.3-.4.5-.8.7-1.2.2-.4.5-.9.6-1.4l.2-.6.2-.6.3-1.2c.3-1.2.5-2.3.8-3.4.4.1.8.2 1.3.3.3.1.7.1 1.1.1h1.2c.4 0 .9 0 1.3-.1.5-.1.9-.1 1.4-.3.3-.1.6-.1.8-.2 1.4 1 3.8 2.5 5.7 2.5h.1c.7 0 1.3-.6 1.3-1.3.1-.1-.5-.6-1.2-.6z" fill-rule="nonzero" fill="#000"/></svg>